# xmcd
#
# Track frame offsets: 
#        150
#        50261
#        87911
#        133516
#        161607
#        193343
#        221470
#        246570
#        278483
#
# Disc length: 4184 seconds
#
# Revision: 1
# Processed by: cddbd v1.5.2PL0 Copyright (c) Steve Scherf et al.
# Submitted via: ExactAudioCopy v0.99pb5
#
DISCID=7f105609
DTITLE=Kahil El'Zabar - One World Family
DYEAR=2000
DGENRE=Jazz
TTITLE0=Ryan's Groove
TTITLE1=Serendipitous Journey
TTITLE2=Far Too Long
TTITLE3=Upsy Daisy
TTITLE4=Noodle Doodle take 2
TTITLE5=Kelcey's Mystera Oasis
TTITLE6=Noodle Doodle take 3 
TTITLE7=Junction Function
TTITLE8=One World Family
EXTD=YEAR: 2000
EXTT0=
EXTT1=
EXTT2=
EXTT3=
EXTT4=
EXTT5=
EXTT6=
EXTT7=
EXTT8=
PLAYORDER=
